<svg fill="none" height="25" viewBox="0 0 24 25" width="24" xmlns="http://www.w3.org/2000/svg" alt="Instagram" data-v-e7d3eea0=""><g clip-path="url(#clip0_229_34544)"><path d="M12 2.9915C15.2063 2.9915 15.5859 3.00557 16.8469 3.06182C18.0188 3.11338 18.6516 3.31025 19.0734 3.47432C19.6313 3.68994 20.0344 3.95244 20.4516 4.36963C20.8734 4.7915 21.1313 5.18994 21.3469 5.74775C21.5109 6.16963 21.7078 6.80713 21.7594 7.97432C21.8156 9.23994 21.8297 9.61963 21.8297 12.8212C21.8297 16.0274 21.8156 16.4071 21.7594 17.6681C21.7078 18.8399 21.5109 19.4728 21.3469 19.8946C21.1313 20.4524 20.8688 20.8556 20.4516 21.2728C20.0297 21.6946 19.6313 21.9524 19.0734 22.1681C18.6516 22.3321 18.0141 22.529 16.8469 22.5806C15.5813 22.6368 15.2016 22.6509 12 22.6509C8.79375 22.6509 8.41406 22.6368 7.15313 22.5806C5.98125 22.529 5.34844 22.3321 4.92656 22.1681C4.36875 21.9524 3.96563 21.6899 3.54844 21.2728C3.12656 20.8509 2.86875 20.4524 2.65313 19.8946C2.48906 19.4728 2.29219 18.8353 2.24063 17.6681C2.18438 16.4024 2.17031 16.0228 2.17031 12.8212C2.17031 9.61494 2.18438 9.23525 2.24063 7.97432C2.29219 6.80244 2.48906 6.16963 2.65313 5.74775C2.86875 5.18994 3.13125 4.78682 3.54844 4.36963C3.97031 3.94775 4.36875 3.68994 4.92656 3.47432C5.34844 3.31025 5.98594 3.11338 7.15313 3.06182C8.41406 3.00557 8.79375 2.9915 12 2.9915ZM12 0.830566C8.74219 0.830566 8.33438 0.844629 7.05469 0.900879C5.77969 0.957129 4.90313 1.16338 4.14375 1.45869C3.35156 1.76807 2.68125 2.17588 2.01563 2.84619C1.34531 3.51182 0.9375 4.18213 0.628125 4.96963C0.332812 5.73369 0.126563 6.60557 0.0703125 7.88057C0.0140625 9.16494 0 9.57275 0 12.8306C0 16.0884 0.0140625 16.4962 0.0703125 17.7759C0.126563 19.0509 0.332812 19.9274 0.628125 20.6868C0.9375 21.479 1.34531 22.1493 2.01563 22.8149C2.68125 23.4806 3.35156 23.8931 4.13906 24.1978C4.90313 24.4931 5.775 24.6993 7.05 24.7556C8.32969 24.8118 8.7375 24.8259 11.9953 24.8259C15.2531 24.8259 15.6609 24.8118 16.9406 24.7556C18.2156 24.6993 19.0922 24.4931 19.8516 24.1978C20.6391 23.8931 21.3094 23.4806 21.975 22.8149C22.6406 22.1493 23.0531 21.479 23.3578 20.6915C23.6531 19.9274 23.8594 19.0556 23.9156 17.7806C23.9719 16.5009 23.9859 16.0931 23.9859 12.8353C23.9859 9.57744 23.9719 9.16963 23.9156 7.88994C23.8594 6.61494 23.6531 5.73838 23.3578 4.979C23.0625 4.18213 22.6547 3.51182 21.9844 2.84619C21.3188 2.18057 20.6484 1.76807 19.8609 1.46338C19.0969 1.16807 18.225 0.961816 16.95 0.905566C15.6656 0.844629 15.2578 0.830566 12 0.830566Z" fill="currentColor"></path><path d="M12 6.6665C8.59688 6.6665 5.83594 9.42744 5.83594 12.8306C5.83594 16.2337 8.59688 18.9946 12 18.9946C15.4031 18.9946 18.1641 16.2337 18.1641 12.8306C18.1641 9.42744 15.4031 6.6665 12 6.6665ZM12 16.829C9.79219 16.829 8.00156 15.0384 8.00156 12.8306C8.00156 10.6228 9.79219 8.83213 12 8.83213C14.2078 8.83213 15.9984 10.6228 15.9984 12.8306C15.9984 15.0384 14.2078 16.829 12 16.829Z" fill="currentColor"></path><path d="M19.8469 6.42271C19.8469 7.21958 19.2 7.86177 18.4078 7.86177C17.6109 7.86177 16.9688 7.2149 16.9688 6.42271C16.9688 5.62583 17.6156 4.98364 18.4078 4.98364C19.2 4.98364 19.8469 5.63052 19.8469 6.42271Z" fill="currentColor"></path></g><defs><clipPath id="clip0_229_34544"><rect fill="white" height="24" transform="translate(0 0.830566)" width="24"></rect></clipPath></defs></svg>