<svg fill="none" height="25" viewBox="0 0 24 25" width="24" xmlns="http://www.w3.org/2000/svg" alt="Twitter" data-v-e7d3eea0=""><path d="M7.55016 22.5806C16.6045 22.5806 21.5583 15.0773 21.5583 8.57243C21.5583 8.36149 21.5536 8.14586 21.5442 7.93493C22.5079 7.23803 23.3395 6.37482 24 5.38586C23.1025 5.78517 22.1496 6.04595 21.1739 6.1593C22.2013 5.54347 22.9705 4.57604 23.3391 3.43633C22.3726 4.00912 21.3156 4.41318 20.2134 4.63118C19.4708 3.84213 18.489 3.31968 17.4197 3.14462C16.3504 2.96955 15.2532 3.15162 14.2977 3.66266C13.3423 4.17371 12.5818 4.98527 12.1338 5.97188C11.6859 6.95848 11.5754 8.06518 11.8195 9.12086C9.86249 9.02266 7.94794 8.51427 6.19998 7.62866C4.45203 6.74306 2.90969 5.5 1.67297 3.98008C1.0444 5.06381 0.852057 6.34621 1.13503 7.56666C1.418 8.7871 2.15506 9.85401 3.19641 10.5506C2.41463 10.5257 1.64998 10.3152 0.965625 9.93649V9.99743C0.964925 11.1347 1.3581 12.2372 2.07831 13.1173C2.79852 13.9975 3.80132 14.6011 4.91625 14.8256C4.19206 15.0237 3.43198 15.0526 2.69484 14.9099C3.00945 15.888 3.62157 16.7435 4.44577 17.3569C5.26997 17.9703 6.26512 18.3112 7.29234 18.3318C5.54842 19.7017 3.39417 20.4447 1.17656 20.4412C0.783287 20.4406 0.390399 20.4165 0 20.369C2.25286 21.8143 4.87353 22.582 7.55016 22.5806Z" fill="currentColor"></path></svg>